<?xml version="1.0" encoding="utf-8"?>
<!-- Generator: Adobe Illustrator 21.1.0, SVG Export Plug-In . SVG Version: 6.00 Build 0)  -->
<svg version="1.1" id="Layer_1" xmlns="http://www.w3.org/2000/svg" xmlns:xlink="http://www.w3.org/1999/xlink" x="0px" y="0px"
	 viewBox="0 0 32 32" style="enable-background:new 0 0 32 32;" xml:space="preserve">
<style type="text/css">
	.st0{fill:#FFFFFF;}
</style>
<g id="OUTLINE_copy_2">
	<g>
		<path class="st0" d="M16,0C7.2,0,0,7.2,0,16c0,8.8,7.2,16,16,16s16-7.2,16-16C32,7.2,24.8,0,16,0z M11.8,22.3H8.6v-9.8h3.3V22.3z
			 M10.2,11.1L10.2,11.1c-1.1,0-1.8-0.8-1.8-1.7c0-1,0.7-1.7,1.8-1.7s1.8,0.7,1.8,1.7C12.1,10.4,11.3,11.1,10.2,11.1z M23.6,22.3
			L23.6,22.3h-3.3V17c0-1.3-0.5-2.2-1.7-2.2c-0.9,0-1.4,0.6-1.7,1.2c-0.1,0.2-0.1,0.5-0.1,0.8v5.5h-3.3c0,0,0-8.9,0-9.8h3.3v1.4
			c0.4-0.7,1.2-1.6,2.9-1.6c2.1,0,3.8,1.4,3.8,4.4C23.6,16.6,23.6,22.3,23.6,22.3z"/>
	</g>
</g>
</svg>
