<?xml version="1.0" encoding="utf-8"?>
<!-- Generator: Adobe Illustrator 21.1.0, SVG Export Plug-In . SVG Version: 6.00 Build 0)  -->
<svg version="1.1" id="Layer_1" xmlns="http://www.w3.org/2000/svg" xmlns:xlink="http://www.w3.org/1999/xlink" x="0px" y="0px"
	 viewBox="0 0 24 24" style="enable-background:new 0 0 24 24;" xml:space="preserve">
<style type="text/css">
	.st0{fill:#FFFFFF;}
</style>
<g>
	<path class="st0" d="M19.8,17.9c-0.8,0.1-1.7,0.2-2.6,0.4c-0.1-0.7-0.2-1.3-0.3-2c2.1-0.3,4.1-0.6,6.1-0.9c0.3,2.1,0.6,4.1,0.9,6.2
		c-0.7,0.1-1.3,0.2-2,0.3c-0.1-0.9-0.3-1.7-0.4-2.6c-4.3,5.6-11.3,5.6-15,3.7c-4.6-2.4-6.6-7-6.5-10.5c0.3,0,0.7,0,1-0.1
		c0.3,0,0.6,0,0.9,0c0.6,5.3,3.3,8.8,8.7,9.6C14.4,22.5,17.5,20.9,19.8,17.9z"/>
	<path class="st0" d="M23.8,11.4c-0.7,0-1.4,0.1-2,0.1C21,6.4,18.4,3,13.1,2.2C9.1,1.6,5.6,3.7,4,6.1c1-0.1,1.9-0.3,2.8-0.4
		C6.9,6.4,7,7,7.1,7.7C5.1,8,3.1,8.3,1,8.6C0.7,6.6,0.4,4.5,0.1,2.4c0.7-0.1,1.3-0.2,2-0.3C2.2,3,2.3,3.7,2.5,4.5
		C6.7,0,11.7-1.3,17.3,1.4C21.4,3.4,23.4,6.9,23.8,11.4z"/>
</g>
</svg>
